<svg xmlns="http://www.w3.org/2000/svg" xmlns:xlink="http://www.w3.org/1999/xlink" width="500" zoomAndPan="magnify" viewBox="0 0 375 374.999991" height="500" preserveAspectRatio="xMidYMid meet" version="1.2"><defs><clipPath id="1cd54af327"><path d="M 128.96875 109 L 197 109 L 197 223.59375 L 128.96875 223.59375 Z M 128.96875 109 "/></clipPath><clipPath id="f58860b823"><path d="M 179 106.59375 L 245.96875 106.59375 L 245.96875 220 L 179 220 Z M 179 106.59375 "/></clipPath></defs><g id="f75efe6073"><rect x="0" width="375" y="0" height="374.999991" style="fill:#ffffff;fill-opacity:1;stroke:none;"/><rect x="0" width="375" y="0" height="374.999991" style="fill:#000000;fill-opacity:1;stroke:none;"/><g style="fill:#ffbd59;fill-opacity:1;"><g transform="translate(49.722815, 259.156917)"><path style="stroke:none" d="M 20.1875 0.453125 C 18.695312 0.453125 17.289062 0.144531 15.96875 -0.46875 C 14.65625 -1.09375 13.585938 -2 12.765625 -3.1875 C 11.953125 -4.375 11.546875 -5.820312 11.546875 -7.53125 L 11.546875 -17.015625 C 11.546875 -17.316406 11.484375 -17.578125 11.359375 -17.796875 C 11.234375 -18.015625 11.0625 -18.179688 10.84375 -18.296875 C 10.632812 -18.421875 10.390625 -18.484375 10.109375 -18.484375 C 9.828125 -18.484375 9.578125 -18.421875 9.359375 -18.296875 C 9.140625 -18.179688 8.960938 -18.015625 8.828125 -17.796875 C 8.703125 -17.578125 8.640625 -17.316406 8.640625 -17.015625 L 8.640625 0 L 1.4375 0 L 1.4375 -16.9375 C 1.4375 -18.644531 1.835938 -20.09375 2.640625 -21.28125 C 3.441406 -22.46875 4.507812 -23.375 5.84375 -24 C 7.175781 -24.632812 8.597656 -24.953125 10.109375 -24.953125 C 11.628906 -24.953125 13.039062 -24.632812 14.34375 -24 C 15.65625 -23.375 16.71875 -22.46875 17.53125 -21.28125 C 18.351562 -20.09375 18.765625 -18.644531 18.765625 -16.9375 L 18.765625 -7.453125 C 18.765625 -7.148438 18.832031 -6.878906 18.96875 -6.640625 C 19.113281 -6.410156 19.289062 -6.238281 19.5 -6.125 C 19.707031 -6.007812 19.925781 -5.953125 20.15625 -5.953125 C 20.414062 -5.953125 20.660156 -6.007812 20.890625 -6.125 C 21.128906 -6.238281 21.316406 -6.410156 21.453125 -6.640625 C 21.597656 -6.878906 21.671875 -7.148438 21.671875 -7.453125 L 21.671875 -24.5 L 28.84375 -24.5 L 28.84375 -7.53125 C 28.84375 -5.820312 28.429688 -4.375 27.609375 -3.1875 C 26.796875 -2 25.726562 -1.09375 24.40625 -0.46875 C 23.09375 0.144531 21.6875 0.453125 20.1875 0.453125 Z M 20.1875 0.453125 "/></g></g><g style="fill:#ffbd59;fill-opacity:1;"><g transform="translate(85.240959, 259.156917)"><path style="stroke:none" d="M 1.125 0 L 1.125 -5.921875 L 4.9375 -5.921875 L 4.9375 -18.578125 L 1.125 -18.578125 L 1.125 -24.5 L 16.34375 -24.5 L 16.34375 -18.578125 L 12.5 -18.578125 L 12.5 -5.921875 L 16.34375 -5.921875 L 16.34375 0 Z M 1.125 0 "/></g></g><g style="fill:#ffbd59;fill-opacity:1;"><g transform="translate(107.847021, 259.156917)"><path style="stroke:none" d="M 14.9375 0 C 13.375 0 11.984375 -0.332031 10.765625 -1 C 9.554688 -1.664062 8.601562 -2.570312 7.90625 -3.71875 C 7.207031 -4.875 6.859375 -6.191406 6.859375 -7.671875 L 6.859375 -18.578125 L 0.53125 -18.578125 L 0.53125 -24.5 L 20.609375 -24.5 L 20.609375 -18.578125 L 14.421875 -18.578125 L 14.421875 -7.28125 C 14.421875 -6.90625 14.546875 -6.582031 14.796875 -6.3125 C 15.054688 -6.050781 15.375 -5.921875 15.75 -5.921875 L 18.09375 -5.921875 L 18.09375 0 Z M 14.9375 0 "/></g></g><g style="fill:#ffbd59;fill-opacity:1;"><g transform="translate(134.16224, 259.156917)"><path style="stroke:none" d="M 1.125 0 L 1.125 -5.921875 L 4.9375 -5.921875 L 4.9375 -18.578125 L 1.125 -18.578125 L 1.125 -24.5 L 16.34375 -24.5 L 16.34375 -18.578125 L 12.5 -18.578125 L 12.5 -5.921875 L 16.34375 -5.921875 L 16.34375 0 Z M 1.125 0 "/></g></g><g style="fill:#ffbd59;fill-opacity:1;"><g transform="translate(156.768302, 259.156917)"><path style="stroke:none" d="M 13.296875 0.453125 C 11.941406 0.453125 10.769531 0.140625 9.78125 -0.484375 C 8.789062 -1.117188 8.097656 -1.984375 7.703125 -3.078125 L 0 -24.5 L 7.84375 -24.5 L 13.0625 -7.03125 C 13.101562 -6.9375 13.140625 -6.859375 13.171875 -6.796875 C 13.210938 -6.742188 13.253906 -6.71875 13.296875 -6.71875 C 13.367188 -6.71875 13.425781 -6.738281 13.46875 -6.78125 C 13.519531 -6.832031 13.554688 -6.914062 13.578125 -7.03125 L 18.6875 -24.5 L 26.59375 -24.5 L 18.9375 -3.078125 C 18.5625 -1.984375 17.867188 -1.117188 16.859375 -0.484375 C 15.859375 0.140625 14.671875 0.453125 13.296875 0.453125 Z M 13.296875 0.453125 "/></g></g><g style="fill:#ffbd59;fill-opacity:1;"><g transform="translate(188.542294, 259.156917)"><path style="stroke:none" d="M 1.125 0 L 1.125 -5.921875 L 4.9375 -5.921875 L 4.9375 -18.578125 L 1.125 -18.578125 L 1.125 -24.5 L 16.34375 -24.5 L 16.34375 -18.578125 L 12.5 -18.578125 L 12.5 -5.921875 L 16.34375 -5.921875 L 16.34375 0 Z M 1.125 0 "/></g></g><g style="fill:#ffbd59;fill-opacity:1;"><g transform="translate(211.148356, 259.156917)"><path style="stroke:none" d="M 1.953125 0 L 1.953125 -5.921875 L 12.359375 -5.921875 C 12.753906 -5.921875 13.082031 -6 13.34375 -6.15625 C 13.613281 -6.320312 13.820312 -6.535156 13.96875 -6.796875 C 14.125 -7.066406 14.203125 -7.359375 14.203125 -7.671875 C 14.203125 -7.992188 14.125 -8.285156 13.96875 -8.546875 C 13.820312 -8.816406 13.613281 -9.035156 13.34375 -9.203125 C 13.082031 -9.367188 12.753906 -9.453125 12.359375 -9.453125 L 9.203125 -9.453125 C 7.691406 -9.453125 6.316406 -9.742188 5.078125 -10.328125 C 3.835938 -10.910156 2.847656 -11.753906 2.109375 -12.859375 C 1.378906 -13.972656 1.015625 -15.3125 1.015625 -16.875 C 1.015625 -18.414062 1.363281 -19.753906 2.0625 -20.890625 C 2.757812 -22.035156 3.703125 -22.921875 4.890625 -23.546875 C 6.085938 -24.179688 7.410156 -24.5 8.859375 -24.5 L 20.015625 -24.5 L 20.015625 -18.578125 L 9.875 -18.578125 C 9.539062 -18.578125 9.25 -18.507812 9 -18.375 C 8.757812 -18.238281 8.578125 -18.050781 8.453125 -17.8125 C 8.328125 -17.582031 8.265625 -17.328125 8.265625 -17.046875 C 8.265625 -16.765625 8.328125 -16.503906 8.453125 -16.265625 C 8.578125 -16.035156 8.757812 -15.84375 9 -15.6875 C 9.25 -15.539062 9.539062 -15.46875 9.875 -15.46875 L 13.265625 -15.46875 C 14.921875 -15.46875 16.363281 -15.15625 17.59375 -14.53125 C 18.832031 -13.914062 19.789062 -13.0625 20.46875 -11.96875 C 21.144531 -10.875 21.484375 -9.578125 21.484375 -8.078125 C 21.484375 -6.378906 21.128906 -4.921875 20.421875 -3.703125 C 19.710938 -2.492188 18.757812 -1.570312 17.5625 -0.9375 C 16.375 -0.3125 15.054688 0 13.609375 0 Z M 1.953125 0 "/></g></g><g style="fill:#ffbd59;fill-opacity:1;"><g transform="translate(238.793275, 259.156917)"><path style="stroke:none" d="M 1.125 0 L 1.125 -5.921875 L 4.9375 -5.921875 L 4.9375 -18.578125 L 1.125 -18.578125 L 1.125 -24.5 L 16.34375 -24.5 L 16.34375 -18.578125 L 12.5 -18.578125 L 12.5 -5.921875 L 16.34375 -5.921875 L 16.34375 0 Z M 1.125 0 "/></g></g><g style="fill:#ffbd59;fill-opacity:1;"><g transform="translate(261.399337, 259.156917)"><path style="stroke:none" d="M 14.171875 0.453125 C 12.234375 0.453125 10.453125 0.140625 8.828125 -0.484375 C 7.210938 -1.117188 5.816406 -2.015625 4.640625 -3.171875 C 3.460938 -4.328125 2.546875 -5.671875 1.890625 -7.203125 C 1.234375 -8.742188 0.90625 -10.425781 0.90625 -12.25 C 0.90625 -14.070312 1.234375 -15.757812 1.890625 -17.3125 C 2.546875 -18.863281 3.460938 -20.207031 4.640625 -21.34375 C 5.816406 -22.488281 7.210938 -23.375 8.828125 -24 C 10.453125 -24.632812 12.234375 -24.953125 14.171875 -24.953125 C 16.109375 -24.953125 17.882812 -24.632812 19.5 -24 C 21.125 -23.375 22.523438 -22.488281 23.703125 -21.34375 C 24.890625 -20.207031 25.804688 -18.863281 26.453125 -17.3125 C 27.109375 -15.757812 27.4375 -14.070312 27.4375 -12.25 C 27.4375 -10.425781 27.109375 -8.742188 26.453125 -7.203125 C 25.804688 -5.671875 24.890625 -4.328125 23.703125 -3.171875 C 22.523438 -2.015625 21.125 -1.117188 19.5 -0.484375 C 17.882812 0.140625 16.109375 0.453125 14.171875 0.453125 Z M 14.171875 -5.640625 C 15.035156 -5.640625 15.816406 -5.804688 16.515625 -6.140625 C 17.210938 -6.484375 17.804688 -6.957031 18.296875 -7.5625 C 18.796875 -8.164062 19.171875 -8.867188 19.421875 -9.671875 C 19.679688 -10.484375 19.8125 -11.34375 19.8125 -12.25 C 19.8125 -13.15625 19.679688 -14.007812 19.421875 -14.8125 C 19.171875 -15.625 18.796875 -16.332031 18.296875 -16.9375 C 17.804688 -17.539062 17.210938 -18.007812 16.515625 -18.34375 C 15.816406 -18.6875 15.035156 -18.859375 14.171875 -18.859375 C 13.304688 -18.859375 12.523438 -18.6875 11.828125 -18.34375 C 11.128906 -18.007812 10.535156 -17.539062 10.046875 -16.9375 C 9.554688 -16.332031 9.179688 -15.625 8.921875 -14.8125 C 8.671875 -14.007812 8.546875 -13.15625 8.546875 -12.25 C 8.546875 -11.34375 8.671875 -10.484375 8.921875 -9.671875 C 9.179688 -8.867188 9.554688 -8.164062 10.046875 -7.5625 C 10.535156 -6.957031 11.128906 -6.484375 11.828125 -6.140625 C 12.523438 -5.804688 13.304688 -5.640625 14.171875 -5.640625 Z M 14.171875 -5.640625 "/></g></g><g style="fill:#ffbd59;fill-opacity:1;"><g transform="translate(294.922948, 259.156917)"><path style="stroke:none" d="M 20.1875 0.453125 C 18.695312 0.453125 17.289062 0.144531 15.96875 -0.46875 C 14.65625 -1.09375 13.585938 -2 12.765625 -3.1875 C 11.953125 -4.375 11.546875 -5.820312 11.546875 -7.53125 L 11.546875 -17.015625 C 11.546875 -17.316406 11.484375 -17.578125 11.359375 -17.796875 C 11.234375 -18.015625 11.0625 -18.179688 10.84375 -18.296875 C 10.632812 -18.421875 10.390625 -18.484375 10.109375 -18.484375 C 9.828125 -18.484375 9.578125 -18.421875 9.359375 -18.296875 C 9.140625 -18.179688 8.960938 -18.015625 8.828125 -17.796875 C 8.703125 -17.578125 8.640625 -17.316406 8.640625 -17.015625 L 8.640625 0 L 1.4375 0 L 1.4375 -16.9375 C 1.4375 -18.644531 1.835938 -20.09375 2.640625 -21.28125 C 3.441406 -22.46875 4.507812 -23.375 5.84375 -24 C 7.175781 -24.632812 8.597656 -24.953125 10.109375 -24.953125 C 11.628906 -24.953125 13.039062 -24.632812 14.34375 -24 C 15.65625 -23.375 16.71875 -22.46875 17.53125 -21.28125 C 18.351562 -20.09375 18.765625 -18.644531 18.765625 -16.9375 L 18.765625 -7.453125 C 18.765625 -7.148438 18.832031 -6.878906 18.96875 -6.640625 C 19.113281 -6.410156 19.289062 -6.238281 19.5 -6.125 C 19.707031 -6.007812 19.925781 -5.953125 20.15625 -5.953125 C 20.414062 -5.953125 20.660156 -6.007812 20.890625 -6.125 C 21.128906 -6.238281 21.316406 -6.410156 21.453125 -6.640625 C 21.597656 -6.878906 21.671875 -7.148438 21.671875 -7.453125 L 21.671875 -24.5 L 28.84375 -24.5 L 28.84375 -7.53125 C 28.84375 -5.820312 28.429688 -4.375 27.609375 -3.1875 C 26.796875 -2 25.726562 -1.09375 24.40625 -0.46875 C 23.09375 0.144531 21.6875 0.453125 20.1875 0.453125 Z M 20.1875 0.453125 "/></g></g><path style=" stroke:none;fill-rule:nonzero;fill:#ffbd59;fill-opacity:1;" d="M 158.699219 129.144531 L 158.699219 192.980469 C 159.558594 193.839844 160.417969 194.699219 161.355469 195.558594 C 163.617188 197.507812 166.113281 199.226562 168.847656 200.628906 L 168.847656 153.652344 L 216.292969 201.097656 L 216.292969 137.261719 C 215.433594 136.402344 214.578125 135.546875 213.640625 134.6875 C 211.378906 132.734375 208.878906 131.019531 206.148438 129.613281 L 206.148438 176.515625 L 162.992188 133.4375 L 158.699219 129.144531 "/><g clip-rule="nonzero" clip-path="url(#1cd54af327)"><path style=" stroke:none;fill-rule:nonzero;fill:#ffbd59;fill-opacity:1;" d="M 139.113281 165.121094 C 139.113281 145.378906 150.976562 128.367188 167.988281 120.875 L 195.925781 148.8125 L 195.925781 134.453125 L 178.992188 117.519531 L 172.746094 111.277344 L 170.5625 109.089844 C 146.527344 116.347656 128.96875 138.746094 128.96875 165.121094 C 128.96875 197.429688 155.1875 223.652344 187.496094 223.652344 C 190.617188 223.652344 193.742188 223.417969 196.707031 222.949219 L 187.261719 213.507812 C 160.730469 213.351562 139.113281 191.734375 139.113281 165.121094 "/></g><g clip-rule="nonzero" clip-path="url(#f58860b823)"><path style=" stroke:none;fill-rule:nonzero;fill:#ffbd59;fill-opacity:1;" d="M 187.496094 106.59375 C 185.859375 106.59375 184.296875 106.671875 182.660156 106.828125 L 192.960938 117.050781 C 217.074219 119.78125 235.882812 140.304688 235.882812 165.121094 C 235.882812 183.539062 225.503906 199.617188 210.363281 207.730469 L 179.070312 176.4375 L 179.070312 190.875 L 208.101562 219.90625 C 230.261719 211.554688 246.027344 190.171875 246.027344 165.121094 C 246.027344 132.8125 219.804688 106.59375 187.496094 106.59375 "/></g></g></svg>